<?xml version="1.0" encoding="UTF-8" standalone="no"?>
<!-- Created with Inkscape (http://www.inkscape.org/) -->

<svg
   xmlns:dc="http://purl.org/dc/elements/1.1/"
   xmlns:cc="http://creativecommons.org/ns#"
   xmlns:rdf="http://www.w3.org/1999/02/22-rdf-syntax-ns#"
   xmlns:svg="http://www.w3.org/2000/svg"
   xmlns="http://www.w3.org/2000/svg"
   xmlns:sodipodi="http://sodipodi.sourceforge.net/DTD/sodipodi-0.dtd"
   xmlns:inkscape="http://www.inkscape.org/namespaces/inkscape"
   width="756.36981"
   height="756.36981"
   id="svg2"
   version="1.1"
   inkscape:version="0.47 r22583"
   sodipodi:docname="Love_Clover_symbol.svg">
  <defs
     id="defs4">
    <inkscape:perspective
       sodipodi:type="inkscape:persp3d"
       inkscape:vp_x="0 : 526.18109 : 1"
       inkscape:vp_y="0 : 1000 : 0"
       inkscape:vp_z="744.09448 : 526.18109 : 1"
       inkscape:persp3d-origin="372.04724 : 350.78739 : 1"
       id="perspective10" />
  </defs>
  <sodipodi:namedview
     id="base"
     pagecolor="#ffffff"
     bordercolor="#666666"
     borderopacity="1.0"
     inkscape:pageopacity="0.0"
     inkscape:pageshadow="2"
     inkscape:zoom="0.47417135"
     inkscape:cx="201.81689"
     inkscape:cy="418.63076"
     inkscape:document-units="px"
     inkscape:current-layer="layer1"
     showgrid="false"
     inkscape:window-width="1280"
     inkscape:window-height="744"
     inkscape:window-x="-4"
     inkscape:window-y="-4"
     inkscape:window-maximized="1" />
  <metadata
     id="metadata7">
    <rdf:RDF>
      <cc:Work
         rdf:about="">
        <dc:format>image/svg+xml</dc:format>
        <dc:type
           rdf:resource="http://purl.org/dc/dcmitype/StillImage" />
        <dc:title></dc:title>
      </cc:Work>
    </rdf:RDF>
  </metadata>
  <g
     inkscape:label="Layer 1"
     inkscape:groupmode="layer"
     id="layer1"
     transform="translate(81.788246,-188.44201)">
    <g
       id="g2834"
       transform="translate(4.2180348,-244.97944)"
       style="fill:#339900">
      <rect
         transform="matrix(0.70710678,0.70710678,-0.70710678,0.70710678,0,0)"
         y="128.81105"
         x="540.95331"
         height="228.57143"
         width="228.57143"
         id="rect2816"
         style="fill:#339900;fill-opacity:1;fill-rule:nonzero;stroke:none" />
      <path
         transform="translate(-81.952479,151.13084)"
         d="m 411.42857,400.93362 c 0,64.69622 -52.44665,117.14286 -117.14286,117.14286 -64.69622,0 -117.14286,-52.44664 -117.14286,-117.14286 0,-64.69621 52.44664,-117.14286 117.14286,-117.14286 64.69621,0 117.14286,52.44665 117.14286,117.14286 z"
         sodipodi:ry="117.14286"
         sodipodi:rx="117.14286"
         sodipodi:cy="400.93362"
         sodipodi:cx="294.28571"
         id="path2820"
         style="fill:#339900;fill-opacity:1;fill-rule:nonzero;stroke:none"
         sodipodi:type="arc" />
      <path
         sodipodi:type="arc"
         style="fill:#339900;fill-opacity:1;fill-rule:nonzero;stroke:none"
         id="path2822"
         sodipodi:cx="294.28571"
         sodipodi:cy="400.93362"
         sodipodi:rx="117.14286"
         sodipodi:ry="117.14286"
         d="m 411.42857,400.93362 c 0,64.69622 -52.44665,117.14286 -117.14286,117.14286 -64.69622,0 -117.14286,-52.44664 -117.14286,-117.14286 0,-64.69621 52.44664,-117.14286 117.14286,-117.14286 64.69621,0 117.14286,52.44665 117.14286,117.14286 z"
         transform="translate(77.738331,149.63069)" />
    </g>
    <g
       transform="matrix(1,0,0,-1,4.2180347,1378.2333)"
       id="g2839"
       style="fill:#339900">
      <rect
         style="fill:#339900;fill-opacity:1;fill-rule:nonzero;stroke:none"
         id="rect2841"
         width="228.57143"
         height="228.57143"
         x="540.95331"
         y="128.81105"
         transform="matrix(0.70710678,0.70710678,-0.70710678,0.70710678,0,0)" />
      <path
         sodipodi:type="arc"
         style="fill:#339900;fill-opacity:1;fill-rule:nonzero;stroke:none"
         id="path2843"
         sodipodi:cx="294.28571"
         sodipodi:cy="400.93362"
         sodipodi:rx="117.14286"
         sodipodi:ry="117.14286"
         d="m 411.42857,400.93362 c 0,64.69622 -52.44665,117.14286 -117.14286,117.14286 -64.69622,0 -117.14286,-52.44664 -117.14286,-117.14286 0,-64.69621 52.44664,-117.14286 117.14286,-117.14286 64.69621,0 117.14286,52.44665 117.14286,117.14286 z"
         transform="translate(-81.952479,151.13084)" />
      <path
         transform="translate(77.738331,149.63069)"
         d="m 411.42857,400.93362 c 0,64.69622 -52.44665,117.14286 -117.14286,117.14286 -64.69622,0 -117.14286,-52.44664 -117.14286,-117.14286 0,-64.69621 52.44664,-117.14286 117.14286,-117.14286 64.69621,0 117.14286,52.44665 117.14286,117.14286 z"
         sodipodi:ry="117.14286"
         sodipodi:rx="117.14286"
         sodipodi:cy="400.93362"
         sodipodi:cx="294.28571"
         id="path2845"
         style="fill:#339900;fill-opacity:1;fill-rule:nonzero;stroke:none"
         sodipodi:type="arc" />
    </g>
    <g
       transform="matrix(0,1,-1,0,1108.003,274.44829)"
       id="g2859"
       style="fill:#339900">
      <rect
         style="fill:#339900;fill-opacity:1;fill-rule:nonzero;stroke:none"
         id="rect2861"
         width="228.57143"
         height="228.57143"
         x="540.95331"
         y="128.81105"
         transform="matrix(0.70710678,0.70710678,-0.70710678,0.70710678,0,0)" />
      <path
         sodipodi:type="arc"
         style="fill:#339900;fill-opacity:1;fill-rule:nonzero;stroke:none"
         id="path2863"
         sodipodi:cx="294.28571"
         sodipodi:cy="400.93362"
         sodipodi:rx="117.14286"
         sodipodi:ry="117.14286"
         d="m 411.42857,400.93362 c 0,64.69622 -52.44665,117.14286 -117.14286,117.14286 -64.69622,0 -117.14286,-52.44664 -117.14286,-117.14286 0,-64.69621 52.44664,-117.14286 117.14286,-117.14286 64.69621,0 117.14286,52.44665 117.14286,117.14286 z"
         transform="translate(-81.952479,151.13084)" />
      <path
         transform="translate(77.738331,149.63069)"
         d="m 411.42857,400.93362 c 0,64.69622 -52.44665,117.14286 -117.14286,117.14286 -64.69622,0 -117.14286,-52.44664 -117.14286,-117.14286 0,-64.69621 52.44664,-117.14286 117.14286,-117.14286 64.69621,0 117.14286,52.44665 117.14286,117.14286 z"
         sodipodi:ry="117.14286"
         sodipodi:rx="117.14286"
         sodipodi:cy="400.93362"
         sodipodi:cx="294.28571"
         id="path2865"
         style="fill:#339900;fill-opacity:1;fill-rule:nonzero;stroke:none"
         sodipodi:type="arc" />
    </g>
    <g
       id="g2867"
       transform="matrix(0,1,1,0,-515.2097,274.44829)"
       style="fill:#339900">
      <rect
         transform="matrix(0.70710678,0.70710678,-0.70710678,0.70710678,0,0)"
         y="128.81105"
         x="540.95331"
         height="228.57143"
         width="228.57143"
         id="rect2869"
         style="fill:#339900;fill-opacity:1;fill-rule:nonzero;stroke:none" />
      <path
         transform="translate(-81.952479,151.13084)"
         d="m 411.42857,400.93362 c 0,64.69622 -52.44665,117.14286 -117.14286,117.14286 -64.69622,0 -117.14286,-52.44664 -117.14286,-117.14286 0,-64.69621 52.44664,-117.14286 117.14286,-117.14286 64.69621,0 117.14286,52.44665 117.14286,117.14286 z"
         sodipodi:ry="117.14286"
         sodipodi:rx="117.14286"
         sodipodi:cy="400.93362"
         sodipodi:cx="294.28571"
         id="path2871"
         style="fill:#339900;fill-opacity:1;fill-rule:nonzero;stroke:none"
         sodipodi:type="arc" />
      <path
         sodipodi:type="arc"
         style="fill:#339900;fill-opacity:1;fill-rule:nonzero;stroke:none"
         id="path2873"
         sodipodi:cx="294.28571"
         sodipodi:cy="400.93362"
         sodipodi:rx="117.14286"
         sodipodi:ry="117.14286"
         d="m 411.42857,400.93362 c 0,64.69622 -52.44665,117.14286 -117.14286,117.14286 -64.69622,0 -117.14286,-52.44664 -117.14286,-117.14286 0,-64.69621 52.44664,-117.14286 117.14286,-117.14286 64.69621,0 117.14286,52.44665 117.14286,117.14286 z"
         transform="translate(77.738331,149.63069)" />
    </g>
  </g>
</svg>
